<mxfile host="app.diagrams.net" modified="2023-11-22T02:28:59.180Z" agent="Mozilla/5.0 (Macintosh; Intel Mac OS X 10_15_7) AppleWebKit/537.36 (KHTML, like Gecko) Chrome/119.0.0.0 Safari/537.36 Edg/119.0.0.0" version="22.1.3" etag="X5xbLva4dlCG7K_C7Oko" type="github">
  <diagram name="PÃ¡gina-1" id="xEI2MLh7Aiu-7v6094PM">
    <mxGraphModel>
      <root>
        <mxCell id="0" />
        <mxCell id="1" parent="0" />
      </root>
    </mxGraphModel>
  </diagram>
</mxfile>
